<svg width="931" height="831" viewBox="0 0 931 831" fill="none" xmlns="http://www.w3.org/2000/svg">
<rect width="852" height="831" fill="#7694FF"/>
<rect x="762" width="169" height="831" fill="#E0E3FF"/>
<path d="M467.03 799C680.488 799 853.53 625.958 853.53 412.5C853.53 199.042 680.488 26 467.03 26C253.572 26 80.53 199.042 80.53 412.5C80.53 625.958 253.572 799 467.03 799Z" fill="#FAEFE9"/>
<path d="M681.53 244H444.53V611H681.53V244Z" fill="white"/>
<path d="M397.03 468H640.03" stroke="black" stroke-miterlimit="10"/>
<path d="M397.03 492H640.03" stroke="black" stroke-miterlimit="10"/>
<path d="M397.03 516H640.03" stroke="black" stroke-miterlimit="10"/>
<path d="M397.03 540H640.03" stroke="black" stroke-miterlimit="10"/>
<path d="M563.03 413C597.272 413 625.03 385.242 625.03 351C625.03 316.758 597.272 289 563.03 289C528.788 289 501.03 316.758 501.03 351C501.03 385.242 528.788 413 563.03 413Z" fill="#F2F2F2"/>
<path opacity="0.7" d="M738.03 374.5H640.03V465.5H738.03V374.5Z" fill="#50B89D"/>
<path d="M670.827 417.521L684.289 422.962V427.177L666.698 419.027V415.887L684.289 407.759V411.973L670.827 417.521ZM702.287 434.058H698.868L711.943 400.06H715.34L702.287 434.058ZM744.65 417.392L730.436 411.823V407.737L748.8 415.866V419.005L730.436 427.155V423.026L744.65 417.392Z" fill="white"/>
<path d="M564.03 63.5H35.03V411.5H564.03V63.5Z" stroke="black" stroke-miterlimit="10"/>
<path d="M35.03 82H564.03" stroke="black" stroke-miterlimit="10"/>
<path d="M232.53 113H73.53V272H232.53V113Z" stroke="black" stroke-miterlimit="10"/>
<path d="M263.03 127H506.03" stroke="black" stroke-miterlimit="10"/>
<path d="M263.03 151H506.03" stroke="black" stroke-miterlimit="10"/>
<path d="M263.03 175H506.03" stroke="black" stroke-miterlimit="10"/>
<path d="M263.03 199H506.03" stroke="black" stroke-miterlimit="10"/>
<path opacity="0.44" d="M153.03 155L109.73 230H196.33L153.03 155Z" fill="#50B89D"/>
<path d="M46.53 77.5C49.0153 77.5 51.03 75.4853 51.03 73C51.03 70.5147 49.0153 68.5 46.53 68.5C44.0447 68.5 42.03 70.5147 42.03 73C42.03 75.4853 44.0447 77.5 46.53 77.5Z" fill="#AB8DE5"/>
<path d="M62.03 77.5C64.5153 77.5 66.53 75.4853 66.53 73C66.53 70.5147 64.5153 68.5 62.03 68.5C59.5447 68.5 57.53 70.5147 57.53 73C57.53 75.4853 59.5447 77.5 62.03 77.5Z" fill="#73E5E2"/>
<path d="M77.53 77.5C80.0153 77.5 82.03 75.4853 82.03 73C82.03 70.5147 80.0153 68.5 77.53 68.5C75.0447 68.5 73.03 70.5147 73.03 73C73.03 75.4853 75.0447 77.5 77.53 77.5Z" fill="#50B89D"/>
<path d="M268.03 347.25L283.03 334H267.73L268.03 347.25Z" fill="#AB8DE5"/>
<path d="M348.35 284.5H273.71C262.289 284.5 253.03 293.759 253.03 305.18V314.82C253.03 326.241 262.289 335.5 273.71 335.5H348.35C359.771 335.5 369.03 326.241 369.03 314.82V305.18C369.03 293.759 359.771 284.5 348.35 284.5Z" fill="#AB8DE5"/>
<path d="M295.53 314.5C298.015 314.5 300.03 312.485 300.03 310C300.03 307.515 298.015 305.5 295.53 305.5C293.045 305.5 291.03 307.515 291.03 310C291.03 312.485 293.045 314.5 295.53 314.5Z" fill="white"/>
<path d="M311.03 314.5C313.515 314.5 315.53 312.485 315.53 310C315.53 307.515 313.515 305.5 311.03 305.5C308.545 305.5 306.53 307.515 306.53 310C306.53 312.485 308.545 314.5 311.03 314.5Z" fill="white"/>
<path d="M326.53 314.5C329.015 314.5 331.03 312.485 331.03 310C331.03 307.515 329.015 305.5 326.53 305.5C324.045 305.5 322.03 307.515 322.03 310C322.03 312.485 324.045 314.5 326.53 314.5Z" fill="white"/>
<path d="M743.03 197.25L728.03 184H743.33L743.03 197.25Z" fill="#73E5E2"/>
<path d="M662.71 185.5H737.35C748.771 185.5 758.03 176.241 758.03 164.82V155.18C758.03 143.759 748.771 134.5 737.35 134.5H662.71C651.289 134.5 642.03 143.759 642.03 155.18V164.82C642.03 176.241 651.289 185.5 662.71 185.5Z" fill="#73E5E2"/>
<path d="M715.53 164.5C718.015 164.5 720.03 162.485 720.03 160C720.03 157.515 718.015 155.5 715.53 155.5C713.045 155.5 711.03 157.515 711.03 160C711.03 162.485 713.045 164.5 715.53 164.5Z" fill="white"/>
<path d="M700.03 164.5C702.515 164.5 704.53 162.485 704.53 160C704.53 157.515 702.515 155.5 700.03 155.5C697.545 155.5 695.53 157.515 695.53 160C695.53 162.485 697.545 164.5 700.03 164.5Z" fill="white"/>
<path d="M684.53 164.5C687.015 164.5 689.03 162.485 689.03 160C689.03 157.515 687.015 155.5 684.53 155.5C682.045 155.5 680.03 157.515 680.03 160C680.03 162.485 682.045 164.5 684.53 164.5Z" fill="white"/>
<path d="M735.03 73C737.515 73 739.53 70.9853 739.53 68.5C739.53 66.0147 737.515 64 735.03 64C732.545 64 730.53 66.0147 730.53 68.5C730.53 70.9853 732.545 73 735.03 73Z" fill="#F98B67"/>
<path d="M744.53 91.5C747.015 91.5 749.03 89.4853 749.03 87C749.03 84.5147 747.015 82.5 744.53 82.5C742.045 82.5 740.03 84.5147 740.03 87C740.03 89.4853 742.045 91.5 744.53 91.5Z" fill="#F98B67"/>
<path d="M641.03 276.5C644.896 276.5 648.03 273.366 648.03 269.5C648.03 265.634 644.896 262.5 641.03 262.5C637.164 262.5 634.03 265.634 634.03 269.5C634.03 273.366 637.164 276.5 641.03 276.5Z" fill="#F98B67"/>
<path d="M682.03 300.5C685.896 300.5 689.03 297.366 689.03 293.5C689.03 289.634 685.896 286.5 682.03 286.5C678.164 286.5 675.03 289.634 675.03 293.5C675.03 297.366 678.164 300.5 682.03 300.5Z" fill="#F98B67"/>
<path d="M52.03 308.5C55.896 308.5 59.03 305.366 59.03 301.5C59.03 297.634 55.896 294.5 52.03 294.5C48.164 294.5 45.03 297.634 45.03 301.5C45.03 305.366 48.164 308.5 52.03 308.5Z" fill="#F98B67"/>
<path d="M657.23 621.25V620.25L654.83 617.25L649.28 610.51L643.38 603.37C643.38 603.37 637.7 599.44 636.24 598.76C630.92 596.3 625.68 594.42 619.42 594.42C615.57 594.42 601.18 595 601.15 597.42C601.15 601.01 621.3 614.6 636.08 621.2C642.57 621.25 657.23 621.25 657.23 621.25Z" fill="#1F161E"/>
<path d="M654.18 621.25C633.67 605.47 591.8 519.4 602.54 487.5C625.4 499.15 650.48 539.32 662.31 573.24C662.946 575.446 663.457 577.686 663.84 579.95L668.64 601.95L669.8 621.28L654.18 621.25Z" fill="#FBDC8E"/>
<path d="M668.18 621.25C661.26 615.63 659.05 598.99 658.99 592.78C658.88 581.19 660.66 572.65 670.57 559.9C680.48 547.15 677.84 526 691 511.73C704.16 497.46 712.88 493.48 728.5 493.48C744.12 493.48 749.08 518.8 749 525.17C748.82 550.87 732.63 554.51 722.75 566.77C715.58 575.67 715.02 582.95 712.85 587.11C701.21 609.53 691.75 617.96 684.75 621.25" fill="#73E5E2"/>
<path d="M672 619.39C672.2 575.56 718.39 509.73 728.26 499.86" stroke="white" stroke-width="0.4" stroke-linecap="round" stroke-linejoin="round"/>
<path d="M674.49 599.47C669.38 593.9 664.73 578.11 665.43 574.01" stroke="white" stroke-width="0.4" stroke-linecap="round" stroke-linejoin="round"/>
<path d="M661.4 617.47C654.16 604.64 619.81 542.08 607 496" stroke="white" stroke-width="0.4" stroke-linecap="round" stroke-linejoin="round"/>
<path d="M684.79 621.25H706.31L688.31 688.25H640.18L622.47 621.25H684.79Z" fill="#B37361"/>
<path d="M608.19 598.78C618.68 599.5 631.88 599.98 641.19 606.33" stroke="white" stroke-width="0.4" stroke-linecap="round" stroke-linejoin="round"/>
<path d="M774.47 347C771.94 359.07 753.56 508.79 759.57 544.55C765.58 580.31 863.57 655.24 867.86 656.55C872.86 652.88 880.22 640.85 880.22 640.85C880.22 640.85 808.37 557.56 807 554.22C805.63 550.88 822.74 358 822.74 358L774.47 347Z" fill="#1F161E"/>
<path d="M891.49 374.25L818.18 673.26H793.49L818.51 361.33L891.49 374.25Z" fill="#AB8DE5"/>
<path d="M839.42 203.05C849.54 203.05 902.33 204.76 911.87 223.34C921.41 241.92 912.42 327.8 906.49 331.13C903.29 332.92 902.42 331.18 901.49 334.82C900.56 338.46 891.49 374.25 891.49 374.25C885.73 374.41 801.75 361.76 774.49 346.97C774.65 342.86 775.97 332.17 775.97 331.35C772.35 332.83 767.97 333.14 766.77 331.35C756.13 315.24 771.99 231.25 783.37 214.35C788.21 207.1 823.18 203.1 839.42 203.05Z" fill="#FBDC8E"/>
<path d="M874.18 333.45C876.66 333.45 898.01 348.45 896.18 355.82C897.68 349.9 902.4 331.61 902.4 331.61C900.37 332 876 333.48 874.18 333.45Z" fill="#1F161E"/>
<path d="M852.49 212.85C852.49 216.11 826.78 216.11 826.78 212.85V179.85H852.49V212.85Z" fill="#F8CDBA"/>
<path d="M837.74 187.66C839.74 187.66 852.49 193.3 852.49 196.44V179.85C849.31 179.85 837.74 187.66 837.74 187.66Z" fill="#1F161E"/>
<path d="M834.22 190.07C848.033 190.07 859.23 178.873 859.23 165.06C859.23 151.247 848.033 140.05 834.22 140.05C820.408 140.05 809.21 151.247 809.21 165.06C809.21 178.873 820.408 190.07 834.22 190.07Z" fill="#F8CDBA"/>
<path d="M825.76 128.5C812.92 128.5 804.92 136.56 804.92 146.89C804.92 155.48 807 160.34 809.45 161.57C811 153.23 814.37 149.37 817.16 147.71C819.33 149.37 823.04 153.39 828 154.63C832.96 155.87 845.87 155.63 856.3 163.21C859.71 160.11 863.11 156.08 863.11 151.33C863.11 146.58 861.01 140.62 848.66 137.18C840.5 134.91 839.36 128.5 825.76 128.5Z" fill="#1F161E"/>
<path d="M810.85 172.49C813.269 172.49 815.23 171.469 815.23 170.21C815.23 168.951 813.269 167.93 810.85 167.93C808.431 167.93 806.47 168.951 806.47 170.21C806.47 171.469 808.431 172.49 810.85 172.49Z" fill="#FA9E9F"/>
<path d="M838.4 172.49C840.819 172.49 842.78 171.469 842.78 170.21C842.78 168.951 840.819 167.93 838.4 167.93C835.981 167.93 834.02 168.951 834.02 170.21C834.02 171.469 835.981 172.49 838.4 172.49Z" fill="#FA9E9F"/>
<path d="M821.55 165.48C820.73 166.65 816.55 171.56 820.96 173.54" stroke="#1F161E" stroke-miterlimit="10" stroke-linecap="round"/>
<path d="M829.79 179.28C831.11 179.28 833.14 177.64 834.21 176.17" stroke="#1F161E" stroke-miterlimit="10" stroke-linecap="round"/>
<path d="M857.34 173.72C860.532 173.72 863.12 171.132 863.12 167.94C863.12 164.748 860.532 162.16 857.34 162.16C854.148 162.16 851.56 164.748 851.56 167.94C851.56 171.132 854.148 173.72 857.34 173.72Z" fill="#F8CDBA"/>
<path d="M874.76 252.26C874.31 257.78 872.55 285.06 873.21 288.65C864.82 291.57 788 328 774.71 332" stroke="#1F161E" stroke-miterlimit="10" stroke-linecap="round"/>
<path d="M785.54 243.65C783.77 249.83 777.81 277.88 782 290.91" stroke="#1F161E" stroke-miterlimit="10" stroke-linecap="round"/>
<path d="M805.15 319.24C809.15 322.05 847.49 339.02 900.5 332.62" stroke="#1F161E" stroke-miterlimit="10" stroke-linecap="round"/>
<path d="M801.48 290.91C804.05 291.32 795.67 284.63 790.92 287.12C786.17 289.61 779.77 300.88 781.08 303.49C781.257 303.964 781.537 304.392 781.901 304.743C782.265 305.094 782.703 305.359 783.182 305.518C783.662 305.677 784.172 305.727 784.673 305.663C785.175 305.599 785.655 305.424 786.08 305.15C787.37 304.32 797 290.19 801.48 290.91Z" fill="#F8CDBA"/>
<path d="M879.4 642.08C880.77 643.08 892.92 651.3 893.02 656.48C893.12 661.66 881.7 678.83 879.4 679.32C877.1 679.81 875.46 677.87 875.46 674.4C875.46 670.93 879.8 664.85 879.22 662.15C878.64 659.45 873.03 654.51 870.15 654.42" fill="#1F161E"/>
<path d="M815.84 673.26C815.84 675.64 817.22 690.58 814.46 691.97C811.7 693.36 781.24 694.18 779.86 692.8C778.48 691.42 777.64 688.51 778.86 687.68C780.08 686.85 791.86 684.49 793.46 683.39C795.06 682.29 797.27 676.39 796.46 673.26" fill="#1F161E"/>
</svg>
