<svg width="1012" height="832" viewBox="0 0 1012 832" fill="none" xmlns="http://www.w3.org/2000/svg">
<rect y="1" width="1012" height="672" fill="#7694FF"/>
<rect y="412" width="1012" height="420" fill="#E7F2A4"/>
<path d="M446.687 660.072C493.577 660.072 531.589 651.67 531.589 641.305C531.589 630.941 493.577 622.538 446.687 622.538C399.798 622.538 361.786 630.941 361.786 641.305C361.786 651.67 399.798 660.072 446.687 660.072Z" fill="black"/>
<path d="M446.687 641.305L398.997 790.565" stroke="black" stroke-width="4" stroke-miterlimit="10" stroke-linecap="round"/>
<path d="M446.687 641.305L494.378 790.565" stroke="black" stroke-width="4" stroke-miterlimit="10" stroke-linecap="round"/>
<path d="M414.656 741.556L467.822 707.467" stroke="black" stroke-width="2" stroke-miterlimit="10" stroke-linecap="round"/>
<path d="M425.338 707.467L478.517 741.556" stroke="black" stroke-width="2" stroke-miterlimit="10" stroke-linecap="round"/>
<path d="M530.243 479.736C530.028 486.354 530.122 509.534 529.033 519.449" stroke="#1F161E" stroke-miterlimit="10" stroke-linecap="round"/>
<path d="M257.109 186.596C257.109 181.893 253.296 178.081 248.593 178.081C243.89 178.081 240.077 181.893 240.077 186.596V215.991C240.077 220.694 243.89 224.507 248.593 224.507C253.296 224.507 257.109 220.694 257.109 215.991V186.596Z" fill="black"/>
<path d="M248.593 273.919C258.029 273.919 265.678 266.27 265.678 256.834C265.678 247.398 258.029 239.749 248.593 239.749C239.157 239.749 231.508 247.398 231.508 256.834C231.508 266.27 239.157 273.919 248.593 273.919Z" fill="#FBDC8E"/>
<path d="M819.777 459.745H827.849C828.697 459.741 829.509 459.403 830.109 458.803C830.709 458.203 831.047 457.391 831.051 456.543V406.928C831.052 406.508 830.969 406.092 830.808 405.704C830.646 405.315 830.408 404.963 830.109 404.668L819.912 394.471C819.616 394.173 819.264 393.936 818.876 393.775C818.488 393.613 818.072 393.53 817.652 393.529H787.531C786.683 393.533 785.87 393.871 785.27 394.471C784.671 395.071 784.332 395.883 784.329 396.731V401.52" fill="#FBDC8E"/>
<path d="M118.463 578.13C144.024 582.973 139.463 735.53 90.4002 726.301C44.0684 717.503 87.2792 572.198 118.463 578.13Z" fill="black"/>
<path d="M6.23875 596.964C26.5796 585.449 111.723 692.588 72.7769 714.624C35.9832 735.529 -18.5281 611.009 6.23875 596.964Z" fill="#FBDC8E"/>
<path d="M109.893 799.996H58.5302C56.4614 799.995 54.4654 799.232 52.9241 797.852C51.3828 796.472 50.4044 794.572 50.176 792.516L43.6916 734.292C43.5511 733.111 43.6622 731.914 44.0177 730.779C44.3732 729.644 44.9651 728.597 45.7543 727.708C46.5436 726.818 47.5123 726.106 48.5967 725.617C49.6811 725.129 50.8566 724.876 52.0459 724.875H116.109C117.288 724.876 118.455 725.125 119.532 725.606C120.609 726.087 121.573 726.789 122.361 727.667C123.149 728.545 123.743 729.579 124.106 730.702C124.468 731.825 124.589 733.011 124.463 734.184L118.261 792.408C118.054 794.485 117.084 796.411 115.538 797.813C113.992 799.215 111.98 799.993 109.893 799.996Z" fill="#969696"/>
<path d="M132.898 518.722C152.364 524.372 137.445 642.126 100.167 631.283C64.9742 621.059 109.207 511.834 132.898 518.722Z" fill="#AB8DE5"/>
<path d="M164.997 612.408C178.45 624.005 123.723 712.713 97.8666 690.435C73.4495 669.489 148.571 598.31 164.997 612.408Z" fill="#FBDC8E"/>
<path d="M84.3464 530.964C113.485 530.964 140.163 717.018 84.3464 717.018C31.6379 717.018 48.8711 530.964 84.3464 530.964Z" fill="#78E5E1"/>
<path d="M135.481 712.283H32.9697C29.9606 712.283 27.5213 714.722 27.5213 717.731V727.66C27.5213 730.669 29.9606 733.108 32.9697 733.108H135.481C138.49 733.108 140.929 730.669 140.929 727.66V717.731C140.929 714.722 138.49 712.283 135.481 712.283Z" fill="#D8D8D8"/>
<path d="M806.217 401.52H776.62C776.146 401.52 775.676 401.614 775.237 401.796C774.799 401.978 774.401 402.245 774.066 402.581C773.731 402.917 773.466 403.316 773.285 403.755C773.105 404.194 773.013 404.665 773.015 405.139V464.063C773.015 465.02 773.394 465.939 774.07 466.617C774.746 467.295 775.663 467.678 776.62 467.682H816.158C817.116 467.678 818.033 467.295 818.709 466.617C819.384 465.939 819.764 465.02 819.764 464.063V415.094C819.766 414.62 819.674 414.15 819.494 413.712C819.314 413.273 819.049 412.874 818.715 412.538L808.759 402.583C808.086 401.906 807.172 401.524 806.217 401.52V401.52Z" fill="#D8D8D8"/>
<path d="M819.777 413.682H809.728C809.193 413.682 808.679 413.469 808.301 413.091C807.923 412.712 807.71 412.199 807.71 411.664V401.52" fill="#969696"/>
<path d="M831.091 405.704H821.042C820.504 405.701 819.99 405.486 819.609 405.105C819.229 404.725 819.014 404.21 819.01 403.673V393.529" fill="#64CCC4"/>
<path d="M773.055 334.162H703.692C701.441 334.162 699.616 335.987 699.616 338.238V360.893C699.616 363.144 701.441 364.969 703.692 364.969H773.055C775.307 364.969 777.132 363.144 777.132 360.893V338.238C777.132 335.987 775.307 334.162 773.055 334.162Z" fill="#78E5E1"/>
<path d="M738.36 386.09L747.696 357.812H729.024L738.36 386.09Z" fill="#78E5E1"/>
<path d="M719.862 342.368L712.033 355.915H727.679L719.862 342.368Z" fill="white"/>
<path d="M756.871 355.915L764.701 342.368H749.042L756.871 355.915Z" fill="white"/>
<path d="M738.36 355.027C741.607 355.027 744.239 352.395 744.239 349.148C744.239 345.901 741.607 343.269 738.36 343.269C735.113 343.269 732.481 345.901 732.481 349.148C732.481 352.395 735.113 355.027 738.36 355.027Z" fill="white"/>
<path d="M732.32 268.875H686.795C684.826 268.875 683.23 270.471 683.23 272.44V299.964C683.23 301.933 684.826 303.529 686.795 303.529H732.32C734.289 303.529 735.885 301.933 735.885 299.964V272.44C735.885 270.471 734.289 268.875 732.32 268.875Z" fill="#D8D8D8"/>
<path d="M684.885 269.964L709.557 286.202" stroke="#969696" stroke-width="0.82" stroke-linecap="round" stroke-linejoin="round"/>
<path d="M735.885 268.875L709.557 286.202" stroke="#969696" stroke-width="0.82" stroke-linecap="round" stroke-linejoin="round"/>
<path d="M735.885 276.408C740.046 276.408 743.418 273.035 743.418 268.875C743.418 264.714 740.046 261.341 735.885 261.341C731.724 261.341 728.351 264.714 728.351 268.875C728.351 273.035 731.724 276.408 735.885 276.408Z" fill="#FBDC8E"/>
<path d="M736.304 268.96H735.641V264.565L734.311 265.053V264.454L736.201 263.745H736.304V268.96Z" fill="white"/>
<path d="M1000.13 290.009H803.714C802.801 290.009 802.06 290.75 802.06 291.664V292.686C802.06 293.6 802.801 294.341 803.714 294.341H1000.13C1001.04 294.341 1001.78 293.6 1001.78 292.686V291.664C1001.78 290.75 1001.04 290.009 1000.13 290.009Z" fill="#D8D8D8"/>
<path d="M886.679 203.991H874.746C872.844 203.991 871.302 205.533 871.302 207.435V286.565C871.302 288.467 872.844 290.009 874.746 290.009H886.679C888.581 290.009 890.123 288.467 890.123 286.565V207.435C890.123 205.533 888.581 203.991 886.679 203.991Z" fill="#969696"/>
<path d="M896.674 224.157H892.988C891.405 224.157 890.122 225.44 890.122 227.023V287.144C890.122 288.726 891.405 290.009 892.988 290.009H896.674C898.257 290.009 899.54 288.726 899.54 287.144V227.023C899.54 225.44 898.257 224.157 896.674 224.157Z" fill="#D8D8D8"/>
<path d="M906.185 224.157H902.311C900.78 224.157 899.54 225.398 899.54 226.928V287.238C899.54 288.768 900.78 290.009 902.311 290.009H906.185C907.716 290.009 908.957 288.768 908.957 287.238V226.928C908.957 225.398 907.716 224.157 906.185 224.157Z" fill="#969696"/>
<path d="M913.014 228.87L909.835 230.329C908.35 231.011 907.698 232.769 908.38 234.254L933.386 288.721C934.068 290.206 935.825 290.858 937.311 290.176L940.49 288.716C941.975 288.034 942.627 286.277 941.945 284.792L916.939 230.325C916.257 228.839 914.5 228.188 913.014 228.87Z" fill="#D8D8D8"/>
<path d="M880.706 268.242C883.611 268.242 885.966 265.887 885.966 262.982C885.966 260.077 883.611 257.722 880.706 257.722C877.8 257.722 875.445 260.077 875.445 262.982C875.445 265.887 877.8 268.242 880.706 268.242Z" fill="#D8D8D8"/>
<path d="M885.468 271.39H875.943C875.245 271.39 874.679 271.956 874.679 272.655C874.679 273.353 875.245 273.919 875.943 273.919H885.468C886.166 273.919 886.732 273.353 886.732 272.655C886.732 271.956 886.166 271.39 885.468 271.39Z" fill="#D8D8D8"/>
<path d="M885.468 277.861H875.943C875.245 277.861 874.679 278.427 874.679 279.126C874.679 279.824 875.245 280.39 875.943 280.39H885.468C886.166 280.39 886.732 279.824 886.732 279.126C886.732 278.427 886.166 277.861 885.468 277.861Z" fill="#D8D8D8"/>
<path d="M789.091 407.601H779.566C778.868 407.601 778.302 408.167 778.302 408.866C778.302 409.564 778.868 410.13 779.566 410.13H789.091C789.79 410.13 790.356 409.564 790.356 408.866C790.356 408.167 789.79 407.601 789.091 407.601Z" fill="#969696"/>
<path d="M789.091 413.682H779.566C778.868 413.682 778.302 414.248 778.302 414.946C778.302 415.645 778.868 416.211 779.566 416.211H789.091C789.79 416.211 790.356 415.645 790.356 414.946C790.356 414.248 789.79 413.682 789.091 413.682Z" fill="#969696"/>
<path d="M813.791 424.081H779.015C778.317 424.081 777.75 424.647 777.75 425.345C777.75 426.044 778.317 426.61 779.015 426.61H813.791C814.489 426.61 815.055 426.044 815.055 425.345C815.055 424.647 814.489 424.081 813.791 424.081Z" fill="#969696"/>
<path d="M813.791 430.054H779.015C778.317 430.054 777.75 430.62 777.75 431.319C777.75 432.017 778.317 432.583 779.015 432.583H813.791C814.489 432.583 815.055 432.017 815.055 431.319C815.055 430.62 814.489 430.054 813.791 430.054Z" fill="#969696"/>
<path d="M813.791 436.027H779.015C778.317 436.027 777.75 436.593 777.75 437.292C777.75 437.99 778.317 438.556 779.015 438.556H813.791C814.489 438.556 815.055 437.99 815.055 437.292C815.055 436.593 814.489 436.027 813.791 436.027Z" fill="#969696"/>
<path d="M895.813 234.099C895.813 233.556 895.373 233.117 894.831 233.117C894.289 233.117 893.849 233.556 893.849 234.099V280.054C893.849 280.596 894.289 281.036 894.831 281.036C895.373 281.036 895.813 280.596 895.813 280.054V234.099Z" fill="#969696"/>
<path d="M854.499 292.175H846.078C844.228 292.175 842.728 293.675 842.728 295.525C842.728 297.375 844.228 298.875 846.078 298.875H854.499C856.349 298.875 857.849 297.375 857.849 295.525C857.849 293.675 856.349 292.175 854.499 292.175Z" fill="#D8D8D8"/>
<path d="M957.764 292.175H949.342C947.492 292.175 945.993 293.675 945.993 295.525C945.993 297.375 947.492 298.875 949.342 298.875H957.764C959.614 298.875 961.114 297.375 961.114 295.525C961.114 293.675 959.614 292.175 957.764 292.175Z" fill="#D8D8D8"/>
<path d="M639.885 298.727H590.768C581.852 298.727 574.625 305.954 574.625 314.87V338.83C574.625 347.746 581.852 354.973 590.768 354.973H639.885C648.801 354.973 656.028 347.746 656.028 338.83V314.87C656.028 305.954 648.801 298.727 639.885 298.727Z" fill="#D8D8D8"/>
<path d="M603.71 307.78H591.468V345.919H603.71V307.78Z" fill="#AB8DE5"/>
<path d="M621.454 333.153H609.212V345.933H621.454V333.153Z" fill="#AB8DE5"/>
<path d="M639.185 322.39H626.943V345.919H639.185V322.39Z" fill="#AB8DE5"/>
<path d="M248.593 205.323C241.827 205.321 235.128 206.652 228.876 209.24C222.625 211.828 216.945 215.622 212.16 220.405C207.376 225.189 203.58 230.868 200.991 237.119C198.401 243.369 197.068 250.069 197.068 256.834H300.118C300.118 250.069 298.785 243.369 296.195 237.119C293.606 230.868 289.81 225.189 285.026 220.405C280.241 215.622 274.561 211.828 268.31 209.24C262.059 206.652 255.359 205.321 248.593 205.323V205.323Z" fill="#AB8DE5"/>
<path d="M248.593 187.888V1" stroke="black" stroke-width="2" stroke-linecap="round" stroke-linejoin="round"/>
<path d="M652.719 772.767C652.719 775.955 650.849 796.068 654.575 797.924C658.302 799.781 699.266 800.911 701.122 799.041C702.979 797.171 704.095 793.269 702.468 792.153C700.84 791.036 684.979 787.875 682.826 786.382C680.674 784.888 677.701 776.964 678.791 772.767" fill="#1F161E"/>
<path d="M530.243 509.857L553.302 501.583C552.306 459.516 542.472 365.52 528.508 351.543C525.225 348.274 460.302 342.57 448.719 342.57C379.598 342.57 359.095 350.453 353.889 355.673C337.746 371.816 332.714 446.615 332.714 472.807C332.714 499 406.705 512.588 406.705 512.588L493.436 518.547C493.436 518.547 512.459 520.511 528.912 521.48C529.275 516.435 530.243 509.857 530.243 509.857Z" fill="#78E5E1"/>
<path d="M598.948 534.247C605.257 532.377 668.001 522.139 681.67 535.592C695.338 549.045 738.36 741.92 738.36 746.359H703.719L656.956 645.718" fill="#1F161E"/>
<path d="M370.503 517.094C368.929 524.964 359.472 533.413 359.472 576.287C359.472 635.574 408.037 636.825 425.472 636.825C479.795 636.825 567.683 620.682 573.616 617.722C577.557 624.314 650.109 772.431 650.445 775.74H683.849C683.849 775.74 663.145 554.144 625.786 529.014C613.652 520.942 398.364 512.305 370.503 517.094Z" fill="#55B79D"/>
<path d="M566.109 473.749C557.338 473.749 550.1 475.834 530.243 479.736L529.208 517.727C548.042 510.139 552.414 499.592 557.876 499.592C571.517 499.592 578.647 506.628 586.705 506.628C592.329 506.628 602.445 502.215 602.445 496.215C602.445 483.65 576.979 473.749 566.109 473.749Z" fill="#F8CDBA"/>
<path d="M705.683 743.695C705.683 746.897 703.813 766.996 707.54 768.866C711.266 770.736 752.23 771.839 754.087 769.982C755.943 768.126 757.06 764.211 755.432 763.094C753.804 761.978 737.943 758.803 735.791 757.31C733.638 755.816 730.665 747.893 731.755 743.695" fill="#1F161E"/>
<path d="M460.947 351.516C460.947 356.588 431.499 356.736 431.499 351.516V310.269H460.947V351.516Z" fill="#F8CDBA"/>
<path d="M451.356 323.87C448.665 323.87 431.499 331.458 431.499 335.695V313.31C435.777 313.31 451.356 323.87 451.356 323.87Z" fill="#1F161E"/>
<path d="M457.046 325.619C476.735 325.619 492.696 309.658 492.696 289.969C492.696 270.28 476.735 254.318 457.046 254.318C437.357 254.318 421.396 270.28 421.396 289.969C421.396 309.658 437.357 325.619 457.046 325.619Z" fill="#F8CDBA"/>
<path d="M493.84 261.987C489.427 268.996 480.199 272.211 470.203 272.211C461.687 272.211 449.284 269.736 440.459 274.767C435.683 277.458 430.208 283.579 429.104 295.834C429.104 297.933 426.723 306.072 426.723 308.695C426.723 310.484 424.705 311.655 421.342 311.655C419.607 311.655 416.176 308.843 416.176 304.552C416.176 299.588 418.154 297.825 418.154 293.614C418.154 289.404 413.001 285.354 413.001 273.65C413.001 256.794 423.764 246.408 431.378 246.408C438.32 246.408 440.499 248.023 441.373 248.709C441.373 233.386 461.553 226.39 469.557 226.39C478.705 226.39 483.01 230.144 483.01 234.919C483.01 242.534 479.378 249.005 477.535 250.458C481.707 246.705 487.125 244.638 492.737 244.659C503.216 244.659 506.741 251.547 506.741 256.256C506.741 266.493 494.459 275.978 489.885 275.978C488.734 273.543 487.384 271.208 485.849 268.996" fill="#1F161E"/>
<path d="M430.208 302.278C434.405 302.278 437.808 298.875 437.808 294.677C437.808 290.479 434.405 287.076 430.208 287.076C426.01 287.076 422.607 290.479 422.607 294.677C422.607 298.875 426.01 302.278 430.208 302.278Z" fill="#F8CDBA"/>
<path d="M493.046 296.507C496.3 296.507 498.939 295.134 498.939 293.44C498.939 291.746 496.3 290.372 493.046 290.372C489.792 290.372 487.154 291.746 487.154 293.44C487.154 295.134 489.792 296.507 493.046 296.507Z" fill="#FA9E9F"/>
<path d="M455.983 296.507C459.238 296.507 461.876 295.134 461.876 293.44C461.876 291.746 459.238 290.372 455.983 290.372C452.729 290.372 450.091 291.746 450.091 293.44C450.091 295.134 452.729 296.507 455.983 296.507Z" fill="#FA9E9F"/>
<path d="M478.651 287.076C479.755 288.65 485.378 295.256 479.445 297.933" stroke="#1F161E" stroke-miterlimit="10" stroke-linecap="round"/>
<path d="M467.566 305.641C465.79 305.641 463.06 303.435 461.62 301.457" stroke="#1F161E" stroke-miterlimit="10" stroke-linecap="round"/>
<path d="M514.571 401.386C517.261 407.103 530.243 462.26 530.243 479.736" stroke="#1F161E" stroke-miterlimit="10" stroke-linecap="round"/>
<path d="M332.714 468.368C332.714 530.372 333.293 548.359 358.181 548.359C415.544 548.359 502.261 501.274 517.719 501.274C531.373 501.274 538.504 508.323 546.562 508.323C552.172 508.323 562.288 503.897 562.288 497.911C562.288 485.332 536.822 475.431 525.965 475.431C501.521 475.431 403.974 499 401.593 499C399.212 499 395.203 497.964 395.203 493.955C395.203 486.677 399.965 469.861 400.584 468.395L332.714 468.368Z" fill="#F8CDBA"/>
<path d="M414.912 414.287C413.27 419.009 400.477 467.803 398.997 473.749" stroke="#1F161E" stroke-miterlimit="10" stroke-linecap="round"/>
<path d="M900.613 791.691C901.581 795.37 905.347 797.568 909.026 796.601C912.705 795.634 914.904 791.867 913.936 788.188L845.059 526.203C844.092 522.524 840.325 520.326 836.646 521.293C832.967 522.26 830.769 526.027 831.736 529.706L900.613 791.691Z" fill="#969696"/>
<path d="M831.052 529.717C832.019 526.038 829.821 522.271 826.142 521.304C822.463 520.337 818.696 522.535 817.729 526.214L748.852 788.199C747.884 791.878 750.083 795.645 753.762 796.612C757.441 797.58 761.207 795.381 762.175 791.702L831.052 529.717Z" fill="#969696"/>
<path d="M736.009 529.715C736.976 526.036 734.778 522.27 731.099 521.302C727.42 520.335 723.653 522.533 722.686 526.213L653.809 788.198C652.842 791.877 655.04 795.643 658.719 796.611C662.398 797.578 666.165 795.38 667.132 791.7L736.009 529.715Z" fill="#D8D8D8"/>
<path d="M804.373 786.855C805.324 790.545 809.086 792.766 812.776 791.815C816.466 790.864 818.687 787.101 817.736 783.411L750.014 520.65C749.063 516.96 745.3 514.74 741.61 515.691C737.92 516.642 735.7 520.404 736.651 524.094L804.373 786.855Z" fill="#D8D8D8"/>
<path d="M347.999 529.722C348.966 526.043 346.768 522.276 343.088 521.309C339.409 520.342 335.643 522.54 334.676 526.219L265.798 788.205C264.831 791.884 267.03 795.65 270.709 796.617C274.388 797.585 278.154 795.386 279.122 791.707L347.999 529.722Z" fill="#969696"/>
<path d="M416.39 791.708C417.357 795.387 421.124 797.585 424.803 796.618C428.482 795.651 430.68 791.884 429.713 788.205L360.836 526.22C359.869 522.541 356.102 520.342 352.423 521.31C348.744 522.277 346.546 526.044 347.513 529.723L416.39 791.708Z" fill="#969696"/>
<path d="M873.454 508.363H207.306C203.94 508.363 201.212 511.092 201.212 514.458V522.65C201.212 526.016 203.94 528.745 207.306 528.745H873.454C876.82 528.745 879.549 526.016 879.549 522.65V514.458C879.549 511.092 876.82 508.363 873.454 508.363Z" fill="#D8D8D8"/>
<path d="M249.557 529.726C250.524 526.047 248.326 522.28 244.647 521.313C240.968 520.346 237.201 522.544 236.234 526.223L167.357 788.209C166.39 791.888 168.588 795.654 172.267 796.621C175.946 797.589 179.713 795.39 180.68 791.711L249.557 529.726Z" fill="#D8D8D8"/>
<path d="M317.948 791.708C318.915 795.387 322.682 797.586 326.361 796.618C330.04 795.651 332.238 791.885 331.271 788.206L262.394 526.22C261.426 522.541 257.66 520.343 253.981 521.31C250.302 522.277 248.103 526.044 249.071 529.723L317.948 791.708Z" fill="#D8D8D8"/>
<path d="M699.925 508.363H575.472L598.019 430.821C598.582 428.95 599.736 427.311 601.307 426.15C602.878 424.989 604.783 424.367 606.737 424.377H712.342C713.729 424.354 715.103 424.656 716.352 425.259C717.602 425.861 718.694 426.747 719.541 427.846C720.387 428.945 720.966 430.226 721.229 431.588C721.493 432.95 721.435 434.355 721.06 435.691L699.925 508.363Z" fill="black"/>
<path d="M652.974 473.978C657.18 473.978 660.589 470.569 660.589 466.363C660.589 462.158 657.18 458.749 652.974 458.749C648.769 458.749 645.36 462.158 645.36 466.363C645.36 470.569 648.769 473.978 652.974 473.978Z" fill="white"/>
<path d="M590.257 502.915H502.934V508.363H590.257V502.915Z" fill="black"/>
</svg>
