<svg width="62" height="19" viewBox="0 0 62 19" fill="none" xmlns="http://www.w3.org/2000/svg">
<path d="M4.83 15H0.915C0.785 15 0.73 14.94 0.75 14.82L0.855 14.055C0.865 13.935 0.935 13.875 1.065 13.875H2.22L3.42 5.355H2.265C2.155 5.355 2.105 5.295 2.115 5.175L2.22 4.41C2.24 4.29 2.31 4.23 2.43 4.23H7.05C8 4.23 8.765 4.495 9.345 5.025C9.935 5.555 10.23 6.275 10.23 7.185C10.23 8.345 9.85 9.26 9.09 9.93C8.33 10.6 7.285 10.935 5.955 10.935H3.945L3.525 13.875H4.98C5.1 13.875 5.155 13.935 5.145 14.055L5.04 14.82C5.02 14.94 4.95 15 4.83 15ZM6.045 9.87C6.955 9.87 7.66 9.66 8.16 9.24C8.66 8.81 8.91 8.165 8.91 7.305C8.91 6.655 8.7 6.17 8.28 5.85C7.86 5.52 7.325 5.355 6.675 5.355H4.725L4.095 9.87H6.045ZM13.3427 15.105C12.3827 15.105 11.6027 14.81 11.0027 14.22C10.4027 13.62 10.1027 12.82 10.1027 11.82C10.1027 10.53 10.5227 9.49 11.3627 8.7C12.2127 7.91 13.2327 7.515 14.4227 7.515C15.3827 7.515 16.1627 7.81 16.7627 8.4C17.3627 8.98 17.6627 9.765 17.6627 10.755C17.6627 12.035 17.2477 13.08 16.4177 13.89C15.5877 14.7 14.5627 15.105 13.3427 15.105ZM11.3627 11.7C11.3627 12.41 11.5627 12.98 11.9627 13.41C12.3727 13.84 12.9177 14.055 13.5977 14.055C14.2877 14.055 14.9277 13.76 15.5177 13.17C16.1077 12.57 16.4027 11.81 16.4027 10.89C16.4027 10.19 16.1977 9.63 15.7877 9.21C15.3777 8.78 14.8727 8.565 14.2727 8.565C13.5127 8.565 12.8377 8.86 12.2477 9.45C11.6577 10.03 11.3627 10.78 11.3627 11.7ZM21.2667 15H18.4017C18.2717 15 18.2167 14.94 18.2367 14.82L18.3417 14.175C18.3517 14.055 18.4167 13.995 18.5367 13.995H19.3767L20.1417 8.625H19.3017C19.1717 8.625 19.1167 8.565 19.1367 8.445L19.2267 7.8C19.2467 7.68 19.3167 7.62 19.4367 7.62H21.2067C21.3367 7.62 21.3867 7.68 21.3567 7.8L21.1017 9.675H21.1467C21.2067 9.505 21.3417 9.285 21.5517 9.015C21.7717 8.735 22.0017 8.505 22.2417 8.325C22.4817 8.135 22.8167 7.965 23.2467 7.815C23.6767 7.665 24.1467 7.59 24.6567 7.59C24.7867 7.59 24.8417 7.655 24.8217 7.785L24.7017 8.58C24.6817 8.71 24.6117 8.775 24.4917 8.775H24.1767C23.3167 8.775 22.5917 9.05 22.0017 9.6C21.4117 10.15 21.0667 10.775 20.9667 11.475L20.6217 13.995H21.4167C21.5367 13.995 21.5917 14.055 21.5817 14.175L21.4917 14.82C21.4817 14.94 21.4067 15 21.2667 15ZM28.0141 15.105C27.2541 15.105 26.6941 14.89 26.3341 14.46C26.0541 14.13 25.9141 13.69 25.9141 13.14C25.9141 12.96 25.9291 12.765 25.9591 12.555L26.5141 8.625H25.6591C25.5191 8.625 25.4591 8.56 25.4791 8.43L25.5691 7.815C25.5891 7.685 25.6691 7.62 25.8091 7.62H26.6491L26.8591 6.105C26.8791 5.965 26.9591 5.895 27.0991 5.895H27.9391C28.0791 5.895 28.1391 5.965 28.1191 6.105L27.8941 7.62H29.7991C29.9191 7.62 29.9791 7.665 29.9791 7.755C29.9791 7.775 29.9741 7.795 29.9641 7.815L29.8891 8.43C29.8691 8.56 29.7891 8.625 29.6491 8.625H27.7591L27.2191 12.525C27.1991 12.675 27.1891 12.815 27.1891 12.945C27.1891 13.675 27.5491 14.04 28.2691 14.04C28.5791 14.04 28.8641 13.935 29.1241 13.725C29.2541 13.695 29.3441 13.71 29.3941 13.77L29.6941 14.235C29.7541 14.325 29.7241 14.42 29.6041 14.52C29.1141 14.91 28.5841 15.105 28.0141 15.105Z" fill="white"/>
<path d="M35.185 15H31.795C31.665 15 31.61 14.94 31.63 14.82L31.735 14.175C31.745 14.055 31.81 13.995 31.93 13.995H32.77L33.535 8.625H32.665C32.535 8.625 32.48 8.565 32.5 8.445L32.59 7.8C32.61 7.68 32.68 7.62 32.8 7.62H33.67L33.805 6.69C33.915 5.86 34.21 5.23 34.69 4.8C35.18 4.36 35.765 4.14 36.445 4.14C37.135 4.14 37.655 4.34 38.005 4.74C38.055 4.78 38.08 4.82 38.08 4.86C38.08 4.9 38.055 4.945 38.005 4.995L37.57 5.46C37.48 5.55 37.395 5.56 37.315 5.49C37.075 5.3 36.785 5.205 36.445 5.205C36.105 5.205 35.8 5.335 35.53 5.595C35.27 5.845 35.105 6.215 35.035 6.705L34.915 7.62H36.835C36.945 7.62 36.995 7.68 36.985 7.8L36.895 8.445C36.885 8.565 36.815 8.625 36.685 8.625H34.78L34.015 13.995H35.335C35.465 13.995 35.52 14.055 35.5 14.175L35.395 14.82C35.385 14.94 35.315 15 35.185 15ZM40.622 15.105C39.662 15.105 38.882 14.81 38.282 14.22C37.682 13.62 37.382 12.82 37.382 11.82C37.382 10.53 37.802 9.49 38.642 8.7C39.492 7.91 40.512 7.515 41.702 7.515C42.662 7.515 43.442 7.81 44.042 8.4C44.642 8.98 44.942 9.765 44.942 10.755C44.942 12.035 44.527 13.08 43.697 13.89C42.867 14.7 41.842 15.105 40.622 15.105ZM38.642 11.7C38.642 12.41 38.842 12.98 39.242 13.41C39.652 13.84 40.197 14.055 40.877 14.055C41.567 14.055 42.207 13.76 42.797 13.17C43.387 12.57 43.682 11.81 43.682 10.89C43.682 10.19 43.477 9.63 43.067 9.21C42.657 8.78 42.152 8.565 41.552 8.565C40.792 8.565 40.117 8.86 39.527 9.45C38.937 10.03 38.642 10.78 38.642 11.7ZM48.3702 15H45.5052C45.3752 15 45.3202 14.94 45.3402 14.82L45.4452 14.175C45.4552 14.055 45.5202 13.995 45.6402 13.995H46.4802L47.7252 5.235H46.8852C46.7452 5.235 46.6902 5.175 46.7202 5.055L46.8102 4.41C46.8302 4.29 46.9002 4.23 47.0202 4.23H48.6852C48.9352 4.23 49.0602 4.325 49.0602 4.515C49.0602 4.545 49.0552 4.575 49.0452 4.605L47.7252 13.995H48.5202C48.6402 13.995 48.6952 14.055 48.6852 14.175L48.5952 14.82C48.5852 14.94 48.5102 15 48.3702 15ZM52.7648 15H49.8998C49.7698 15 49.7148 14.94 49.7348 14.82L49.8398 14.175C49.8498 14.055 49.9148 13.995 50.0348 13.995H50.8748L51.6398 8.625H50.7998C50.6698 8.625 50.6148 8.565 50.6348 8.445L50.7248 7.8C50.7448 7.68 50.8148 7.62 50.9348 7.62H52.8248C52.9448 7.62 52.9998 7.68 52.9898 7.8L52.1198 13.995H52.9148C53.0348 13.995 53.0898 14.055 53.0798 14.175L52.9898 14.82C52.9798 14.94 52.9048 15 52.7648 15ZM52.6748 5.145C52.9148 5.145 53.1048 5.22 53.2448 5.37C53.3848 5.51 53.4548 5.695 53.4548 5.925C53.4548 6.155 53.3548 6.365 53.1548 6.555C52.9548 6.735 52.7398 6.825 52.5098 6.825C52.2798 6.825 52.0948 6.755 51.9548 6.615C51.8248 6.475 51.7598 6.29 51.7598 6.06C51.7598 5.83 51.8548 5.62 52.0448 5.43C52.2348 5.24 52.4448 5.145 52.6748 5.145ZM57.6435 15.105C56.6835 15.105 55.9035 14.81 55.3035 14.22C54.7035 13.62 54.4035 12.82 54.4035 11.82C54.4035 10.53 54.8235 9.49 55.6635 8.7C56.5135 7.91 57.5335 7.515 58.7235 7.515C59.6835 7.515 60.4635 7.81 61.0635 8.4C61.6635 8.98 61.9635 9.765 61.9635 10.755C61.9635 12.035 61.5485 13.08 60.7185 13.89C59.8885 14.7 58.8635 15.105 57.6435 15.105ZM55.6635 11.7C55.6635 12.41 55.8635 12.98 56.2635 13.41C56.6735 13.84 57.2185 14.055 57.8985 14.055C58.5885 14.055 59.2285 13.76 59.8185 13.17C60.4085 12.57 60.7035 11.81 60.7035 10.89C60.7035 10.19 60.4985 9.63 60.0885 9.21C59.6785 8.78 59.1735 8.565 58.5735 8.565C57.8135 8.565 57.1385 8.86 56.5485 9.45C55.9585 10.03 55.6635 10.78 55.6635 11.7Z" fill="black"/>
</svg>
