<svg width="158" height="566" viewBox="0 0 158 566" fill="none" xmlns="http://www.w3.org/2000/svg">
<g clip-path="url(#clip0)">
<path d="M16.1 218.47C13.57 230.54 -4.80996 380.26 1.20004 416C7.21004 451.74 105.2 526.69 109.49 528C114.49 524.33 121.85 512.3 121.85 512.3C121.85 512.3 50 429.06 48.66 425.72C47.32 422.38 64.37 229.54 64.37 229.54L16.1 218.47Z" fill="#1F161E"/>
<path d="M133.12 245.75L59.81 544.76H35.11L60.14 232.83L133.12 245.75Z" fill="#AB8DE5"/>
<path d="M81.05 74.55C91.17 74.55 143.96 76.26 153.5 94.84C163.04 113.42 154.05 199.3 148.12 202.63C144.92 204.42 144.05 202.68 143.12 206.32C142.19 209.96 133.12 245.75 133.12 245.75C127.36 245.91 43.38 233.26 16.12 218.47C16.28 214.36 17.6 203.67 17.6 202.85C13.98 204.33 9.60002 204.64 8.39002 202.85C-2.23998 186.74 13.62 102.75 24.99 85.85C29.84 78.6 64.81 74.6 81.05 74.55Z" fill="#FBDC8E"/>
<path d="M115.81 205C118.29 205 139.64 220 137.81 227.37C139.31 221.45 144.03 203.16 144.03 203.16C142 203.48 117.58 205 115.81 205Z" fill="#1F161E"/>
<path d="M94.12 84.35C94.12 87.61 68.41 87.61 68.41 84.35V51.35H94.12V84.35Z" fill="#F8CDBA"/>
<path d="M79.36 59.16C81.36 59.16 94.12 64.8 94.12 67.94V51.35C90.94 51.35 79.36 59.16 79.36 59.16Z" fill="#1F161E"/>
<path d="M75.8501 61.57C89.6627 61.57 100.86 50.3727 100.86 36.5601C100.86 22.7474 89.6627 11.55 75.8501 11.55C62.0374 11.55 50.8401 22.7474 50.8401 36.5601C50.8401 50.3727 62.0374 61.57 75.8501 61.57Z" fill="#F8CDBA"/>
<path d="M67.39 0C54.55 0 46.54 8.06 46.54 18.39C46.54 26.98 48.63 31.84 51.08 33.07C52.63 24.73 56 20.87 58.79 19.21C60.95 20.87 64.67 24.89 69.63 26.13C74.59 27.37 87.5 27.13 97.93 34.71C101.33 31.61 104.74 27.58 104.74 22.83C104.74 18.08 102.64 12.12 90.28 8.68C82.13 6.41 81 0 67.39 0Z" fill="#1F161E"/>
<path d="M52.48 43.9901C54.899 43.9901 56.86 42.9693 56.86 41.7101C56.86 40.4508 54.899 39.4301 52.48 39.4301C50.061 39.4301 48.1 40.4508 48.1 41.7101C48.1 42.9693 50.061 43.9901 52.48 43.9901Z" fill="#FA9E9F"/>
<path d="M80.03 43.9901C82.449 43.9901 84.41 42.9693 84.41 41.7101C84.41 40.4508 82.449 39.4301 80.03 39.4301C77.611 39.4301 75.65 40.4508 75.65 41.7101C75.65 42.9693 77.611 43.9901 80.03 43.9901Z" fill="#FA9E9F"/>
<path d="M63.18 37C62.36 38.17 58.18 43.08 62.59 45.06" stroke="#1F161E" stroke-miterlimit="10" stroke-linecap="round"/>
<path d="M71.42 50.78C72.73 50.78 74.77 49.14 75.84 47.67" stroke="#1F161E" stroke-miterlimit="10" stroke-linecap="round"/>
<path d="M98.9701 45.22C102.162 45.22 104.75 42.6322 104.75 39.44C104.75 36.2478 102.162 33.66 98.9701 33.66C95.7779 33.66 93.1901 36.2478 93.1901 39.44C93.1901 42.6322 95.7779 45.22 98.9701 45.22Z" fill="#F8CDBA"/>
<path d="M116.39 123.76C115.94 129.28 114.18 156.56 114.84 160.15C106.45 163.07 29.5901 199.51 16.3401 203.48" stroke="#1F161E" stroke-miterlimit="10" stroke-linecap="round"/>
<path d="M27.16 115.15C25.4 121.33 19.44 149.38 23.63 162.41" stroke="#1F161E" stroke-miterlimit="10" stroke-linecap="round"/>
<path d="M46.77 190.74C50.77 193.55 89.12 210.52 142.12 204.12" stroke="#1F161E" stroke-miterlimit="10" stroke-linecap="round"/>
<path d="M43.11 162.41C45.68 162.82 37.3 156.13 32.55 158.62C27.8 161.11 21.4 172.38 22.71 175C22.8865 175.474 23.167 175.902 23.5308 176.253C23.8947 176.604 24.3326 176.868 24.8124 177.028C25.2921 177.187 25.8015 177.237 26.303 177.173C26.8045 177.109 27.2853 176.934 27.71 176.66C29 175.82 38.6 161.69 43.11 162.41Z" fill="#F8CDBA"/>
<path d="M121 513.58C122.37 514.58 134.52 522.8 134.62 527.98C134.72 533.16 123.33 550.33 121 550.82C118.67 551.31 117.06 549.37 117.06 545.9C117.06 542.43 121.4 536.35 120.82 533.65C120.24 530.95 114.63 526.01 111.75 525.92" fill="#1F161E"/>
<path d="M57.47 544.76C57.47 547.14 58.85 562.08 56.08 563.47C53.31 564.86 22.87 565.68 21.49 564.3C20.11 562.92 19.27 560.01 20.49 559.18C21.71 558.35 33.49 555.99 35.08 554.89C36.67 553.79 38.89 547.89 38.08 544.76" fill="#1F161E"/>
</g>
<defs>
<clipPath id="clip0">
<rect width="157.67" height="565.01" fill="white"/>
</clipPath>
</defs>
</svg>
